<svg width="21" height="21" viewBox="0 0 21 21" fill="none" xmlns="http://www.w3.org/2000/svg">
<path d="M17.0625 3.28125H3.9375C2.85019 3.28125 1.96875 4.16269 1.96875 5.25V17.0625C1.96875 18.1498 2.85019 19.0312 3.9375 19.0312H17.0625C18.1498 19.0312 19.0312 18.1498 19.0312 17.0625V5.25C19.0312 4.16269 18.1498 3.28125 17.0625 3.28125Z" stroke="#FFBC00" stroke-width="1.3125" stroke-linejoin="round"/>
<path d="M16.3168 3.28125H4.68316C3.1865 3.28125 1.96875 4.51787 1.96875 6.0375V8.53125H2.625C2.625 7.875 3.28125 7.21875 3.9375 7.21875H17.0625C17.7188 7.21875 18.375 7.875 18.375 8.53125H19.0312V6.0375C19.0312 4.51787 17.8135 3.28125 16.3168 3.28125Z" fill="#FFBC00"/>
<path d="M5.25 1.96875V3.28125" stroke="#FFBC00" stroke-width="1.3125" stroke-linecap="round" stroke-linejoin="round"/>
<path d="M15.75 1.96875V3.28125" stroke="#FFBC00" stroke-width="1.3125" stroke-linecap="round" stroke-linejoin="round"/>
<path d="M10.428 14.101C10.428 14.377 10.386 14.638 10.302 14.884C10.218 15.124 10.095 15.337 9.933 15.523C9.771 15.703 9.57 15.847 9.33 15.955C9.09 16.057 8.817 16.108 8.511 16.108C8.211 16.108 7.941 16.06 7.701 15.964C7.461 15.868 7.254 15.727 7.08 15.541C6.906 15.349 6.771 15.115 6.675 14.839C6.585 14.563 6.54 14.245 6.54 13.885C6.54 13.291 6.615 12.745 6.765 12.247C6.921 11.743 7.134 11.305 7.404 10.933C7.674 10.561 7.992 10.261 8.358 10.033C8.73 9.799 9.132 9.652 9.564 9.592L9.717 10.168C9.381 10.228 9.075 10.342 8.799 10.51C8.523 10.678 8.28 10.885 8.07 11.131C7.866 11.377 7.698 11.653 7.566 11.959C7.434 12.265 7.344 12.58 7.296 12.904C7.392 12.742 7.554 12.595 7.782 12.463C8.01 12.325 8.289 12.256 8.619 12.256C9.183 12.256 9.624 12.418 9.942 12.742C10.266 13.066 10.428 13.519 10.428 14.101ZM9.681 14.173C9.681 13.747 9.582 13.426 9.384 13.21C9.186 12.994 8.88 12.886 8.466 12.886C8.172 12.886 7.917 12.958 7.701 13.102C7.491 13.246 7.344 13.408 7.26 13.588C7.248 13.672 7.242 13.741 7.242 13.795C7.242 13.849 7.242 13.909 7.242 13.975C7.242 14.161 7.266 14.344 7.314 14.524C7.368 14.704 7.449 14.866 7.557 15.01C7.665 15.148 7.797 15.262 7.953 15.352C8.115 15.436 8.304 15.478 8.52 15.478C8.694 15.478 8.85 15.445 8.988 15.379C9.132 15.313 9.255 15.223 9.357 15.109C9.459 14.995 9.537 14.857 9.591 14.695C9.651 14.533 9.681 14.359 9.681 14.173ZM11.2913 12.85C11.2913 11.77 11.4653 10.957 11.8133 10.411C12.1673 9.865 12.6803 9.592 13.3523 9.592C14.0783 9.592 14.6033 9.862 14.9273 10.402C15.2573 10.936 15.4223 11.752 15.4223 12.85C15.4223 13.93 15.2453 14.743 14.8913 15.289C14.5433 15.835 14.0303 16.108 13.3523 16.108C12.6383 16.108 12.1163 15.823 11.7863 15.253C11.4563 14.683 11.2913 13.882 11.2913 12.85ZM12.0383 12.85C12.0383 13.24 12.0623 13.597 12.1103 13.921C12.1643 14.239 12.2453 14.515 12.3533 14.749C12.4613 14.977 12.5963 15.157 12.7583 15.289C12.9263 15.415 13.1243 15.478 13.3523 15.478C13.8083 15.478 14.1413 15.268 14.3513 14.848C14.5673 14.422 14.6753 13.756 14.6753 12.85C14.6753 12.466 14.6513 12.112 14.6033 11.788C14.5613 11.464 14.4863 11.185 14.3783 10.951C14.2763 10.717 14.1413 10.537 13.9733 10.411C13.8053 10.285 13.5983 10.222 13.3523 10.222C12.9023 10.222 12.5693 10.435 12.3533 10.861C12.1433 11.287 12.0383 11.95 12.0383 12.85Z" fill="#FFBC00"/>
</svg>
