<svg width="21" height="21" viewBox="0 0 21 21" fill="none" xmlns="http://www.w3.org/2000/svg">
<path d="M17.0625 3.28125H3.9375C2.85019 3.28125 1.96875 4.16269 1.96875 5.25V17.0625C1.96875 18.1498 2.85019 19.0312 3.9375 19.0312H17.0625C18.1498 19.0312 19.0312 18.1498 19.0312 17.0625V5.25C19.0312 4.16269 18.1498 3.28125 17.0625 3.28125Z" stroke="#FF9F94" stroke-width="1.3125" stroke-linejoin="round"/>
<path d="M16.3168 3.28125H4.68316C3.1865 3.28125 1.96875 4.51787 1.96875 6.0375V8.53125H2.625C2.625 7.875 3.28125 7.21875 3.9375 7.21875H17.0625C17.7188 7.21875 18.375 7.875 18.375 8.53125H19.0312V6.0375C19.0312 4.51787 17.8135 3.28125 16.3168 3.28125Z" fill="#FF9F94"/>
<path d="M5.25 1.96875V3.28125" stroke="#FF9F94" stroke-width="1.3125" stroke-linecap="round" stroke-linejoin="round"/>
<path d="M15.75 1.96875V3.28125" stroke="#FF9F94" stroke-width="1.3125" stroke-linecap="round" stroke-linejoin="round"/>
<path d="M6.468 11.608C6.468 11.32 6.51 11.053 6.594 10.807C6.678 10.561 6.801 10.348 6.963 10.168C7.125 9.988 7.326 9.847 7.566 9.745C7.812 9.643 8.097 9.592 8.421 9.592C9.033 9.592 9.51 9.79 9.852 10.186C10.194 10.582 10.365 11.14 10.365 11.86C10.365 12.538 10.287 13.132 10.131 13.642C9.981 14.146 9.771 14.572 9.501 14.92C9.231 15.268 8.91 15.541 8.538 15.739C8.172 15.931 7.773 16.054 7.341 16.108L7.179 15.532C7.527 15.478 7.839 15.376 8.115 15.226C8.397 15.076 8.637 14.887 8.835 14.659C9.039 14.431 9.204 14.173 9.33 13.885C9.456 13.591 9.543 13.273 9.591 12.931C9.429 13.123 9.249 13.258 9.051 13.336C8.859 13.408 8.604 13.444 8.286 13.444C8.04 13.444 7.806 13.405 7.584 13.327C7.368 13.243 7.176 13.123 7.008 12.967C6.84 12.811 6.708 12.619 6.612 12.391C6.516 12.163 6.468 11.902 6.468 11.608ZM7.215 11.536C7.215 11.962 7.326 12.283 7.548 12.499C7.776 12.709 8.073 12.814 8.439 12.814C8.733 12.814 8.985 12.766 9.195 12.67C9.405 12.574 9.555 12.448 9.645 12.292C9.657 12.214 9.663 12.145 9.663 12.085C9.663 12.025 9.663 11.962 9.663 11.896C9.663 11.68 9.636 11.473 9.582 11.275C9.534 11.071 9.459 10.891 9.357 10.735C9.255 10.573 9.12 10.447 8.952 10.357C8.79 10.267 8.598 10.222 8.376 10.222C8.01 10.222 7.725 10.339 7.521 10.573C7.317 10.801 7.215 11.122 7.215 11.536ZM11.2913 12.85C11.2913 11.77 11.4653 10.957 11.8133 10.411C12.1673 9.865 12.6803 9.592 13.3523 9.592C14.0783 9.592 14.6033 9.862 14.9273 10.402C15.2573 10.936 15.4223 11.752 15.4223 12.85C15.4223 13.93 15.2453 14.743 14.8913 15.289C14.5433 15.835 14.0303 16.108 13.3523 16.108C12.6383 16.108 12.1163 15.823 11.7863 15.253C11.4563 14.683 11.2913 13.882 11.2913 12.85ZM12.0383 12.85C12.0383 13.24 12.0623 13.597 12.1103 13.921C12.1643 14.239 12.2453 14.515 12.3533 14.749C12.4613 14.977 12.5963 15.157 12.7583 15.289C12.9263 15.415 13.1243 15.478 13.3523 15.478C13.8083 15.478 14.1413 15.268 14.3513 14.848C14.5673 14.422 14.6753 13.756 14.6753 12.85C14.6753 12.466 14.6513 12.112 14.6033 11.788C14.5613 11.464 14.4863 11.185 14.3783 10.951C14.2763 10.717 14.1413 10.537 13.9733 10.411C13.8053 10.285 13.5983 10.222 13.3523 10.222C12.9023 10.222 12.5693 10.435 12.3533 10.861C12.1433 11.287 12.0383 11.95 12.0383 12.85Z" fill="#FF9F94"/>
</svg>
