<svg width="21" height="21" viewBox="0 0 21 21" fill="none" xmlns="http://www.w3.org/2000/svg">
<path d="M17.0625 3.28125H3.9375C2.85019 3.28125 1.96875 4.16269 1.96875 5.25V17.0625C1.96875 18.1498 2.85019 19.0312 3.9375 19.0312H17.0625C18.1498 19.0312 19.0312 18.1498 19.0312 17.0625V5.25C19.0312 4.16269 18.1498 3.28125 17.0625 3.28125Z" stroke="#6548C3" stroke-width="1.3125" stroke-linejoin="round"/>
<path d="M16.3168 3.28125H4.68316C3.1865 3.28125 1.96875 4.51787 1.96875 6.0375V8.53125H2.625C2.625 7.875 3.28125 7.21875 3.9375 7.21875H17.0625C17.7188 7.21875 18.375 7.875 18.375 8.53125H19.0312V6.0375C19.0312 4.51787 17.8135 3.28125 16.3168 3.28125Z" fill="#6548C3"/>
<path d="M5.25 1.96875V3.28125" stroke="#6548C3" stroke-width="1.3125" stroke-linecap="round" stroke-linejoin="round"/>
<path d="M15.75 1.96875V3.28125" stroke="#6548C3" stroke-width="1.3125" stroke-linecap="round" stroke-linejoin="round"/>
<path d="M8.106 15.478C8.31 15.478 8.499 15.448 8.673 15.388C8.847 15.328 8.997 15.241 9.123 15.127C9.249 15.007 9.348 14.866 9.42 14.704C9.492 14.542 9.528 14.365 9.528 14.173C9.528 13.753 9.402 13.441 9.15 13.237C8.904 13.033 8.562 12.931 8.124 12.931H7.458V12.67L8.754 10.672L9.168 10.276L8.583 10.366H6.801V9.7H10.014V9.961L8.583 12.112L8.268 12.373V12.391L8.574 12.328C8.814 12.334 9.036 12.379 9.24 12.463C9.444 12.541 9.621 12.658 9.771 12.814C9.921 12.964 10.038 13.147 10.122 13.363C10.206 13.573 10.248 13.813 10.248 14.083C10.248 14.407 10.191 14.695 10.077 14.947C9.963 15.199 9.807 15.412 9.609 15.586C9.417 15.754 9.189 15.883 8.925 15.973C8.661 16.063 8.382 16.108 8.088 16.108C7.818 16.108 7.575 16.087 7.359 16.045C7.143 16.003 6.954 15.949 6.792 15.883L6.981 15.244C7.119 15.31 7.281 15.367 7.467 15.415C7.659 15.457 7.872 15.478 8.106 15.478ZM11.2913 12.85C11.2913 11.77 11.4653 10.957 11.8133 10.411C12.1673 9.865 12.6803 9.592 13.3523 9.592C14.0783 9.592 14.6033 9.862 14.9273 10.402C15.2573 10.936 15.4223 11.752 15.4223 12.85C15.4223 13.93 15.2453 14.743 14.8913 15.289C14.5433 15.835 14.0303 16.108 13.3523 16.108C12.6383 16.108 12.1163 15.823 11.7863 15.253C11.4563 14.683 11.2913 13.882 11.2913 12.85ZM12.0383 12.85C12.0383 13.24 12.0623 13.597 12.1103 13.921C12.1643 14.239 12.2453 14.515 12.3533 14.749C12.4613 14.977 12.5963 15.157 12.7583 15.289C12.9263 15.415 13.1243 15.478 13.3523 15.478C13.8083 15.478 14.1413 15.268 14.3513 14.848C14.5673 14.422 14.6753 13.756 14.6753 12.85C14.6753 12.466 14.6513 12.112 14.6033 11.788C14.5613 11.464 14.4863 11.185 14.3783 10.951C14.2763 10.717 14.1413 10.537 13.9733 10.411C13.8053 10.285 13.5983 10.222 13.3523 10.222C12.9023 10.222 12.5693 10.435 12.3533 10.861C12.1433 11.287 12.0383 11.95 12.0383 12.85Z" fill="#6548C3"/>
</svg>
