<svg width="21" height="21" viewBox="0 0 21 21" fill="none" xmlns="http://www.w3.org/2000/svg">
<path d="M17.0625 3.28125H3.9375C2.85019 3.28125 1.96875 4.16269 1.96875 5.25V17.0625C1.96875 18.1498 2.85019 19.0312 3.9375 19.0312H17.0625C18.1498 19.0312 19.0312 18.1498 19.0312 17.0625V5.25C19.0312 4.16269 18.1498 3.28125 17.0625 3.28125Z" stroke="#28D781" stroke-width="1.3125" stroke-linejoin="round"/>
<path d="M16.3168 3.28125H4.68316C3.1865 3.28125 1.96875 4.51787 1.96875 6.0375V8.53125H2.625C2.625 7.875 3.28125 7.21875 3.9375 7.21875H17.0625C17.7188 7.21875 18.375 7.875 18.375 8.53125H19.0312V6.0375C19.0312 4.51787 17.8135 3.28125 16.3168 3.28125Z" fill="#28D781"/>
<path d="M5.25 1.96875V3.28125" stroke="#28D781" stroke-width="1.3125" stroke-linecap="round" stroke-linejoin="round"/>
<path d="M15.75 1.96875V3.28125" stroke="#28D781" stroke-width="1.3125" stroke-linecap="round" stroke-linejoin="round"/>
<path d="M14 10.352L9.2 15.05L7 12.8967L7.564 12.3447L9.2 13.942L13.436 9.79999L14 10.352Z" fill="#28D781"/>
</svg>
