<svg width="50" height="50" viewBox="0 0 50 50" fill="none" xmlns="http://www.w3.org/2000/svg">
<rect x="0.75" y="0.75" width="48.5" height="48.5" rx="4.25" stroke="#28D781" stroke-width="1.5"/>
<path d="M30.1875 20.0312H35.6562V25.5" stroke="#28D781" stroke-width="1.5625" stroke-linecap="round" stroke-linejoin="round"/>
<path d="M15.3438 30.9688L21.27 25.0425C21.4151 24.8974 21.5874 24.7822 21.777 24.7037C21.9666 24.6251 22.1698 24.5847 22.375 24.5847C22.5802 24.5847 22.7834 24.6251 22.973 24.7037C23.1626 24.7822 23.3349 24.8974 23.48 25.0425L25.9575 27.52C26.1026 27.6651 26.2749 27.7803 26.4645 27.8588C26.6541 27.9374 26.8573 27.9778 27.0625 27.9778C27.2677 27.9778 27.4709 27.9374 27.6605 27.8588C27.8501 27.7803 28.0224 27.6651 28.1675 27.52L34.875 20.8125" stroke="#28D781" stroke-width="1.5625" stroke-linecap="round" stroke-linejoin="round"/>
</svg>
