<svg width="20" height="20" viewBox="0 0 20 20" fill="none" xmlns="http://www.w3.org/2000/svg">
<path d="M17.5 15.625H2.5C2.33424 15.625 2.17527 15.5592 2.05806 15.4419C1.94085 15.3247 1.875 15.1658 1.875 15C1.875 14.8342 1.94085 14.6753 2.05806 14.5581C2.17527 14.4408 2.33424 14.375 2.5 14.375H17.5C17.6658 14.375 17.8247 14.4408 17.9419 14.5581C18.0592 14.6753 18.125 14.8342 18.125 15C18.125 15.1658 18.0592 15.3247 17.9419 15.4419C17.8247 15.5592 17.6658 15.625 17.5 15.625Z" fill="white"/>
<path d="M16.25 17.5H3.75C3.58424 17.5 3.42527 17.4342 3.30806 17.3169C3.19085 17.1997 3.125 17.0408 3.125 16.875C3.125 16.7092 3.19085 16.5503 3.30806 16.4331C3.42527 16.3158 3.58424 16.25 3.75 16.25H16.25C16.4158 16.25 16.5747 16.3158 16.6919 16.4331C16.8092 16.5503 16.875 16.7092 16.875 16.875C16.875 17.0408 16.8092 17.1997 16.6919 17.3169C16.5747 17.4342 16.4158 17.5 16.25 17.5Z" fill="white"/>
<path d="M1.25 10.625H0.625V12.5C0.625 12.8315 0.756696 13.1495 0.991117 13.3839C1.22554 13.6183 1.54348 13.75 1.875 13.75H3.75V13.125C3.74928 12.4622 3.48565 11.8267 3.01697 11.358C2.54828 10.8893 1.91282 10.6257 1.25 10.625Z" fill="white"/>
<path d="M18.75 9.375H19.375V6.875H18.75C17.7558 6.87386 16.8026 6.47841 16.0996 5.77539C15.3966 5.07238 15.0011 4.11921 15 3.125V2.5H5V3.125C4.99886 4.11921 4.60341 5.07238 3.90039 5.77539C3.19738 6.47841 2.24421 6.87386 1.25 6.875H0.625V9.375C0.820312 9.375 1.02891 9.375 1.25 9.375C2.24421 9.37614 3.19738 9.77159 3.90039 10.4746C4.60341 11.1776 4.99886 12.1308 5 13.125V13.75H15V13.125C15.0011 12.1308 15.3966 11.1776 16.0996 10.4746C16.8026 9.77159 17.7558 9.37614 18.75 9.375ZM10 11.875C9.25832 11.875 8.5333 11.6551 7.91661 11.243C7.29993 10.831 6.81928 10.2453 6.53545 9.56006C6.25162 8.87484 6.17736 8.12084 6.32206 7.39341C6.46675 6.66598 6.8239 5.9978 7.34835 5.47335C7.8728 4.9489 8.54098 4.59175 9.26841 4.44706C9.99584 4.30236 10.7498 4.37662 11.4351 4.66045C12.1203 4.94428 12.706 5.42493 13.118 6.04161C13.5301 6.6583 13.75 7.38332 13.75 8.125C13.7489 9.11921 13.3534 10.0724 12.6504 10.7754C11.9474 11.4784 10.9942 11.8739 10 11.875Z" fill="white"/>
<path d="M10 10.625C11.3807 10.625 12.5 9.50571 12.5 8.125C12.5 6.74429 11.3807 5.625 10 5.625C8.61929 5.625 7.5 6.74429 7.5 8.125C7.5 9.50571 8.61929 10.625 10 10.625Z" fill="white"/>
<path d="M16.25 13.125V13.75H18.125C18.4565 13.75 18.7745 13.6183 19.0089 13.3839C19.2433 13.1495 19.375 12.8315 19.375 12.5V10.625H18.75C18.0872 10.6257 17.4517 10.8893 16.983 11.358C16.5143 11.8267 16.2507 12.4622 16.25 13.125Z" fill="white"/>
<path d="M18.75 5.625H19.375V3.75C19.375 3.41848 19.2433 3.10054 19.0089 2.86612C18.7745 2.6317 18.4565 2.5 18.125 2.5H16.25V3.125C16.2507 3.78782 16.5143 4.42328 16.983 4.89197C17.4517 5.36065 18.0872 5.62428 18.75 5.625Z" fill="white"/>
<path d="M3.75 3.125V2.5H1.875C1.54348 2.5 1.22554 2.6317 0.991117 2.86612C0.756696 3.10054 0.625 3.41848 0.625 3.75V5.625H1.25C1.91282 5.62428 2.54828 5.36065 3.01697 4.89197C3.48565 4.42328 3.74928 3.78782 3.75 3.125Z" fill="white"/>
</svg>
