<svg width="50" height="50" viewBox="0 0 50 50" fill="none" xmlns="http://www.w3.org/2000/svg">
<rect x="0.75" y="0.75" width="48.5" height="48.5" rx="4.25" stroke="#F2414E" stroke-width="1.5"/>
<path d="M30.1875 30.9688H35.6562V25.5" stroke="#F2414E" stroke-width="1.5625" stroke-linecap="round" stroke-linejoin="round"/>
<path d="M15.3438 20.0312L21.27 25.9575C21.4151 26.1026 21.5874 26.2178 21.777 26.2963C21.9666 26.3749 22.1698 26.4153 22.375 26.4153C22.5802 26.4153 22.7834 26.3749 22.973 26.2963C23.1626 26.2178 23.3349 26.1026 23.48 25.9575L25.9575 23.48C26.1026 23.3349 26.2749 23.2197 26.4645 23.1412C26.6541 23.0626 26.8573 23.0222 27.0625 23.0222C27.2677 23.0222 27.4709 23.0626 27.6605 23.1412C27.8501 23.2197 28.0224 23.3349 28.1675 23.48L34.875 30.1875" stroke="#F2414E" stroke-width="1.5625" stroke-linecap="round" stroke-linejoin="round"/>
</svg>
