<svg width="18" height="18" viewBox="0 0 18 18" fill="none" xmlns="http://www.w3.org/2000/svg">
<path d="M17.3746 10.7188L17.3563 10.7039L16.1235 9.73711C16.0454 9.67535 15.9831 9.59595 15.9417 9.50543C15.9002 9.41491 15.8809 9.31586 15.8852 9.21641V8.76484C15.8813 8.66602 15.9009 8.56768 15.9423 8.47791C15.9838 8.38814 16.046 8.30949 16.1238 8.24844L17.3563 7.28125L17.3746 7.26641C17.5647 7.10807 17.6922 6.88729 17.7345 6.64354C17.7767 6.3998 17.7308 6.14898 17.6051 5.93594L15.9367 3.04922C15.9348 3.0465 15.9331 3.04362 15.9317 3.04063C15.8052 2.83053 15.6092 2.67135 15.3777 2.59071C15.1461 2.51008 14.8936 2.51309 14.6641 2.59922L14.6504 2.6043L13.2012 3.1875C13.1097 3.22448 13.0108 3.2392 12.9125 3.23044C12.8142 3.22168 12.7194 3.18969 12.636 3.13711C12.5078 3.05638 12.3776 2.98008 12.2453 2.9082C12.1596 2.86169 12.0859 2.79567 12.0303 2.71547C11.9748 2.63527 11.9388 2.54313 11.9254 2.44648L11.7071 0.9L11.7024 0.871875C11.6548 0.632343 11.5263 0.416473 11.3383 0.260544C11.1504 0.104615 10.9145 0.0181309 10.6703 0.015625H7.32971C7.08208 0.0164174 6.84267 0.104577 6.65366 0.264572C6.46465 0.424567 6.33817 0.646132 6.2965 0.890234L6.29299 0.912109L6.07541 2.46172C6.06206 2.55809 6.0264 2.65001 5.97127 2.73017C5.91614 2.81032 5.84305 2.8765 5.75783 2.92344C5.62424 2.99531 5.49377 3.07148 5.36721 3.15078C5.28387 3.20304 5.18933 3.23479 5.09134 3.24341C4.99335 3.25203 4.89472 3.23729 4.80353 3.20039L3.35314 2.61445L3.33947 2.60898C3.10957 2.52276 2.85672 2.51987 2.62491 2.6008C2.3931 2.68173 2.197 2.84138 2.07072 3.05195L2.06564 3.06055L0.394941 5.94922C0.269015 6.16248 0.223054 6.41357 0.265277 6.65761C0.3075 6.90164 0.435154 7.1227 0.62541 7.28125L0.643769 7.29609L1.87658 8.26289C1.95465 8.32465 2.01696 8.40405 2.05838 8.49457C2.0998 8.58509 2.11916 8.68414 2.11486 8.78359V9.23516C2.11877 9.33398 2.09918 9.43232 2.05769 9.52209C2.0162 9.61186 1.95399 9.69051 1.87619 9.75156L0.643769 10.7188L0.62541 10.7336C0.435342 10.8919 0.307792 11.1127 0.265569 11.3565C0.223347 11.6002 0.269204 11.851 0.394941 12.0641L2.0633 14.9508C2.06522 14.9535 2.06692 14.9564 2.06838 14.9594C2.19479 15.1695 2.3908 15.3287 2.62235 15.4093C2.85391 15.4899 3.10639 15.4869 3.33596 15.4008L3.34963 15.3957L4.79768 14.8125C4.88914 14.7755 4.98809 14.7608 5.08637 14.7696C5.18464 14.7783 5.27943 14.8103 5.36291 14.8629C5.49103 14.9439 5.62124 15.0202 5.75353 15.0918C5.83931 15.1383 5.91295 15.2043 5.96852 15.2845C6.02409 15.3647 6.06004 15.4569 6.07346 15.5535L6.29064 17.1L6.29533 17.1281C6.34295 17.368 6.47183 17.5842 6.66025 17.7402C6.84868 17.8962 7.08511 17.9824 7.32971 17.9844H10.6703C10.918 17.9836 11.1574 17.8954 11.3464 17.7354C11.5354 17.5754 11.6619 17.3539 11.7035 17.1098L11.7071 17.0879L11.9246 15.5383C11.9382 15.4417 11.9741 15.3497 12.0296 15.2695C12.0851 15.1893 12.1586 15.1233 12.2442 15.0766C12.3778 15.0047 12.5082 14.9285 12.6348 14.8492C12.7181 14.797 12.8127 14.7652 12.9107 14.7566C13.0086 14.748 13.1073 14.7627 13.1985 14.7996L14.6488 15.3836L14.6625 15.3891C14.8924 15.4754 15.1453 15.4784 15.3772 15.3975C15.609 15.3165 15.8051 15.1568 15.9313 14.9461C15.9328 14.9431 15.9345 14.9403 15.9363 14.9375L17.6047 12.0512C17.7309 11.8379 17.777 11.5868 17.7348 11.3426C17.6927 11.0985 17.565 10.8773 17.3746 10.7188ZM12.1215 9.14688C12.0931 9.75179 11.8895 10.3354 11.5355 10.8268C11.1815 11.3181 10.6924 11.696 10.1276 11.9145C9.56281 12.1331 8.94671 12.1828 8.3542 12.0576C7.76168 11.9325 7.2183 11.6379 6.79011 11.2097C6.36193 10.7814 6.06739 10.238 5.94232 9.64548C5.81726 9.05295 5.86704 8.43685 6.08563 7.87209C6.30422 7.30734 6.68219 6.81826 7.17358 6.46434C7.66498 6.11041 8.24862 5.90689 8.85353 5.87852C9.28782 5.8594 9.72132 5.93085 10.1265 6.08834C10.5317 6.24583 10.8996 6.48591 11.207 6.79331C11.5144 7.10071 11.7544 7.4687 11.9118 7.87389C12.0693 8.27908 12.1407 8.7126 12.1215 9.14688Z" fill="white"/>
</svg>
