<svg width="20" height="20" viewBox="0 0 20 20" fill="none" xmlns="http://www.w3.org/2000/svg">
<path d="M13.125 10C12.3219 10 11.5453 9.64141 10.9375 8.99063C10.3465 8.35586 9.98554 7.50938 9.92187 6.60781C9.8539 5.64609 10.1473 4.76172 10.7476 4.11719C11.348 3.47266 12.1875 3.125 13.125 3.125C14.0559 3.125 14.8976 3.47891 15.4961 4.12187C16.1004 4.77109 16.3945 5.65391 16.3266 6.60742C16.2613 7.51016 15.9008 8.35625 15.3109 8.99023C14.7047 9.64141 13.9285 10 13.125 10Z" fill="#595959"/>
<path d="M18.2746 16.875H7.97575C7.81017 16.8759 7.64659 16.8388 7.49761 16.7665C7.34862 16.6943 7.2182 16.5888 7.11638 16.4582C7.00837 16.3166 6.93378 16.1525 6.8982 15.978C6.86262 15.8036 6.86696 15.6233 6.91091 15.4508C7.23981 14.1301 8.05466 13.0348 9.26716 12.2836C10.3433 11.6172 11.7133 11.25 13.125 11.25C14.5644 11.25 15.8984 11.6016 16.9808 12.2676C18.1961 13.0148 19.0121 14.1164 19.3394 15.4531C19.3828 15.6258 19.3867 15.806 19.3507 15.9804C19.3147 16.1548 19.2398 16.3188 19.1316 16.4602C19.0299 16.5901 18.8998 16.6951 18.7512 16.767C18.6027 16.8389 18.4396 16.8758 18.2746 16.875Z" fill="#595959"/>
<path d="M5.74219 10.1562C4.36758 10.1562 3.15899 8.87813 3.04688 7.30742C2.99141 6.50273 3.24219 5.75859 3.75 5.21289C4.25235 4.67266 4.96094 4.375 5.74219 4.375C6.52344 4.375 7.22657 4.67422 7.73164 5.21758C8.24336 5.76758 8.49336 6.51016 8.43477 7.3082C8.32266 8.87852 7.11446 10.1562 5.74219 10.1562Z" fill="#595959"/>
<path d="M8.30711 11.3848C7.62 11.0488 6.7282 10.8809 5.74266 10.8809C4.59187 10.8809 3.4743 11.1809 2.59539 11.7254C1.59891 12.3438 0.928593 13.2441 0.65789 14.3313C0.618275 14.4876 0.614528 14.6509 0.64693 14.8089C0.679331 14.9669 0.747043 15.1156 0.844999 15.2438C0.937948 15.3631 1.05702 15.4595 1.19307 15.5256C1.32912 15.5917 1.47851 15.6257 1.62977 15.625H5.9657C6.03889 15.625 6.10974 15.5993 6.16592 15.5524C6.2221 15.5055 6.26004 15.4404 6.27312 15.3684C6.27742 15.3438 6.28289 15.3191 6.28914 15.2949C6.62039 13.9645 7.39656 12.8402 8.54344 12.0207C8.58562 11.9903 8.61955 11.9498 8.64215 11.903C8.66475 11.8562 8.6753 11.8045 8.67286 11.7525C8.67041 11.7006 8.65505 11.6501 8.62815 11.6056C8.60125 11.5611 8.56368 11.524 8.51883 11.4977C8.4575 11.4617 8.38719 11.4238 8.30711 11.3848Z" fill="#595959"/>
</svg>
