<svg width="20" height="20" viewBox="0 0 20 20" fill="none" xmlns="http://www.w3.org/2000/svg">
<g clip-path="url(#clip0)">
<path d="M19.2188 9.21874H2.67353L5.41431 6.49125C5.72013 6.18687 5.7213 5.69222 5.41693 5.3864C5.11255 5.08054 4.61787 5.07941 4.31205 5.38375L0.229859 9.44624C0.229585 9.44648 0.22939 9.44675 0.229155 9.44698C-0.0758836 9.75136 -0.0768602 10.2476 0.229077 10.553C0.229351 10.5532 0.229546 10.5535 0.22978 10.5537L4.31197 14.6162C4.61775 14.9205 5.11244 14.9195 5.41685 14.6136C5.72123 14.3078 5.72005 13.8131 5.41423 13.5087L2.67353 10.7812H19.2188C19.6502 10.7812 20 10.4315 20 9.99999C20 9.56851 19.6502 9.21874 19.2188 9.21874Z" fill="#6548C3"/>
</g>
<defs>
<clipPath id="clip0">
<rect width="20" height="20" fill="white"/>
</clipPath>
</defs>
</svg>
