<svg width="191" height="88" viewBox="0 0 191 88" fill="none" xmlns="http://www.w3.org/2000/svg">
<path d="M96.6949 22.7237C95.1439 27.9625 93.524 32.874 91.8351 37.458C90.1463 42.042 88.3024 46.4881 86.3033 50.7964C85.5795 52.3473 84.8557 53.6571 84.132 54.7255C83.4082 55.8284 82.6154 56.7245 81.7538 57.4139C80.8921 58.1377 79.9098 58.6547 78.8069 58.9648C77.7385 59.3095 76.4805 59.4818 75.0329 59.4818C73.8266 59.4818 72.7064 59.3612 71.6724 59.1199C70.6729 58.9132 69.8457 58.6719 69.1909 58.3962L70.535 52.2439C71.3278 52.5197 72.0343 52.7092 72.6547 52.8126C73.2751 52.916 73.93 52.9677 74.6193 52.9677C75.9979 52.9677 77.0492 52.5886 77.7729 51.8304C78.5312 51.1066 79.1688 50.0898 79.6858 48.7801C77.928 45.3335 76.1703 41.4733 74.4125 37.1995C72.6547 32.8912 71.0003 28.0659 69.4494 22.7237H77.6178C77.9625 24.0679 78.3589 25.5327 78.8069 27.1181C79.2895 28.6691 79.7892 30.2545 80.3062 31.8744C80.8232 33.4599 81.3402 35.0109 81.8572 36.5274C82.4086 38.0439 82.9256 39.4225 83.4082 40.6633C83.8562 39.4225 84.3215 38.0439 84.804 36.5274C85.2866 35.0109 85.7519 33.4599 86.1999 31.8744C86.6824 30.2545 87.1305 28.6691 87.5441 27.1181C87.9922 25.5327 88.3885 24.0679 88.7332 22.7237H96.6949ZM122.969 36.2689C122.969 38.4058 122.658 40.3704 122.038 42.1626C121.418 43.9204 120.521 45.4369 119.35 46.7121C118.178 47.9529 116.765 48.918 115.11 49.6073C113.49 50.2966 111.664 50.6413 109.63 50.6413C107.631 50.6413 105.804 50.2966 104.15 49.6073C102.53 48.918 101.134 47.9529 99.9624 46.7121C98.7906 45.4369 97.8772 43.9204 97.2224 42.1626C96.5675 40.3704 96.2401 38.4058 96.2401 36.2689C96.2401 34.132 96.5675 32.1846 97.2224 30.4269C97.9117 28.6691 98.8423 27.1698 100.014 25.929C101.22 24.6882 102.634 23.7232 104.253 23.0339C105.908 22.3445 107.7 21.9999 109.63 21.9999C111.595 21.9999 113.387 22.3445 115.007 23.0339C116.661 23.7232 118.074 24.6882 119.246 25.929C120.418 27.1698 121.331 28.6691 121.986 30.4269C122.641 32.1846 122.969 34.132 122.969 36.2689ZM115.11 36.2689C115.11 33.8907 114.628 32.0295 113.663 30.6854C112.732 29.3067 111.388 28.6174 109.63 28.6174C107.872 28.6174 106.511 29.3067 105.546 30.6854C104.581 32.0295 104.098 33.8907 104.098 36.2689C104.098 38.647 104.581 40.5427 105.546 41.9558C106.511 43.3344 107.872 44.0238 109.63 44.0238C111.388 44.0238 112.732 43.3344 113.663 41.9558C114.628 40.5427 115.11 38.647 115.11 36.2689ZM132.917 36.1138C132.917 38.4919 133.451 40.4048 134.519 41.8524C135.588 43.3 137.173 44.0238 139.276 44.0238C139.965 44.0238 140.603 44.0065 141.189 43.9721C141.774 43.9031 142.257 43.8342 142.636 43.7653V29.7548C142.154 29.4446 141.516 29.1861 140.723 28.9793C139.965 28.7725 139.19 28.6691 138.397 28.6691C134.743 28.6691 132.917 31.1507 132.917 36.1138ZM150.339 49.0386C149.65 49.2454 148.857 49.4522 147.961 49.659C147.065 49.8313 146.117 49.9864 145.118 50.1243C144.153 50.2621 143.153 50.3655 142.119 50.4345C141.12 50.5379 140.155 50.5896 139.224 50.5896C136.984 50.5896 134.985 50.2621 133.227 49.6073C131.469 48.9524 129.987 48.0218 128.781 46.8155C127.574 45.5747 126.644 44.0927 125.989 42.3694C125.369 40.6116 125.058 38.647 125.058 36.4757C125.058 34.2698 125.334 32.288 125.886 30.5303C126.437 28.738 127.23 27.2215 128.264 25.9807C129.298 24.7399 130.556 23.7921 132.038 23.1373C133.554 22.4824 135.278 22.155 137.208 22.155C138.276 22.155 139.224 22.2584 140.051 22.4652C140.913 22.672 141.774 22.9649 142.636 23.3441V11.0396L150.339 9.79886V49.0386ZM165.359 44.5408C166.117 44.5408 166.841 44.5235 167.53 44.4891C168.219 44.4546 168.771 44.4029 169.184 44.334V38.4919C168.874 38.423 168.409 38.3541 167.789 38.2851C167.168 38.2162 166.6 38.1818 166.083 38.1818C165.359 38.1818 164.669 38.2334 164.015 38.3368C163.394 38.4058 162.843 38.5609 162.36 38.8021C161.878 39.0434 161.499 39.3708 161.223 39.7844C160.947 40.198 160.809 40.715 160.809 41.3354C160.809 42.5417 161.206 43.3861 161.998 43.8687C162.825 44.3167 163.946 44.5408 165.359 44.5408ZM164.738 21.9999C167.013 21.9999 168.909 22.2584 170.425 22.7754C171.942 23.2924 173.148 24.0334 174.044 24.9984C174.975 25.9635 175.63 27.1353 176.009 28.514C176.388 29.8926 176.577 31.4264 176.577 33.1152V49.142C175.475 49.3833 173.941 49.659 171.976 49.9692C170.012 50.3138 167.634 50.4862 164.842 50.4862C163.084 50.4862 161.481 50.3311 160.034 50.0209C158.621 49.7107 157.397 49.2109 156.363 48.5216C155.329 47.7978 154.536 46.8672 153.985 45.7298C153.433 44.5925 153.158 43.1966 153.158 41.5422C153.158 39.9568 153.468 38.6126 154.088 37.5097C154.743 36.4067 155.605 35.5279 156.673 34.873C157.742 34.2181 158.965 33.7528 160.344 33.4771C161.723 33.1669 163.153 33.0118 164.635 33.0118C165.634 33.0118 166.513 33.0635 167.272 33.1669C168.064 33.2359 168.702 33.3393 169.184 33.4771V32.7533C169.184 31.4436 168.788 30.3924 167.995 29.5997C167.203 28.807 165.824 28.4106 163.859 28.4106C162.55 28.4106 161.257 28.514 159.982 28.7208C158.707 28.8931 157.604 29.1516 156.673 29.4963L155.691 23.2924C156.139 23.1545 156.691 23.0166 157.345 22.8788C158.035 22.7064 158.776 22.5686 159.568 22.4652C160.361 22.3273 161.188 22.2239 162.05 22.155C162.946 22.0516 163.842 21.9999 164.738 21.9999ZM188.506 45.8332C188.506 47.3842 188.007 48.5733 187.007 49.4005C186.042 50.1932 184.939 50.5896 183.698 50.5896C182.457 50.5896 181.337 50.1932 180.338 49.4005C179.373 48.5733 178.89 47.3842 178.89 45.8332C178.89 44.2823 179.373 43.1104 180.338 42.3177C181.337 41.4905 182.457 41.0769 183.698 41.0769C184.939 41.0769 186.042 41.4905 187.007 42.3177C188.007 43.1104 188.506 44.2823 188.506 45.8332Z" fill="#323232"/>
<rect x="39.4001" y="51.0293" width="15.3316" height="47.0129" rx="7.66579" transform="rotate(145.239 39.4001 51.0293)" fill="#6548C3"/>
<rect width="15.3316" height="47.0129" rx="7.66579" transform="matrix(-0.821537 -0.570155 -0.570155 0.821537 57.4375 21.1475)" fill="#FECBC5"/>
<path fill-rule="evenodd" clip-rule="evenodd" d="M35.3581 52.9678C36.8118 50.4737 36.7884 47.2597 35.0339 44.7316L28.723 35.6382L22.4122 44.7314C20.657 47.2605 20.6342 50.476 22.0897 52.9705L22.4384 53.473C23.9142 55.5994 26.273 56.7483 28.6783 56.7685C31.1145 56.7764 33.5136 55.6255 35.0077 53.4727L35.3581 52.9678Z" fill="#441ACD"/>
<path d="M77.3364 76.333H72.1492L70.7418 80.2334H69.0932L74.4211 65.9386H75.1851L80.5331 80.2334H78.784L77.3364 76.333ZM72.6921 74.8854H76.8337L75.2655 70.603L74.7629 68.4718H74.7428L74.2402 70.6432L72.6921 74.8854ZM89.9617 76.7753C89.9617 77.4589 89.9684 78.0821 89.9818 78.6451C89.9952 79.1946 90.0555 79.7375 90.1627 80.2736H89.0771L88.675 78.8461H88.5945C88.3265 79.3153 87.9378 79.704 87.4284 80.0122C86.9191 80.3205 86.3226 80.4747 85.6391 80.4747C84.2987 80.4747 83.3001 80.0525 82.6434 79.208C82 78.3636 81.6783 77.0434 81.6783 75.2473C81.6783 73.5316 82.0804 72.2315 82.8846 71.3469C83.7023 70.4488 84.8214 69.9998 86.2422 69.9998C86.7381 69.9998 87.1269 70.0266 87.4083 70.0802C87.7032 70.1339 88.0182 70.221 88.3533 70.3416V66.1597H89.9617V76.7753ZM85.9004 79.0673C86.584 79.0673 87.1269 78.893 87.529 78.5446C87.9311 78.1827 88.2058 77.6398 88.3533 76.916V71.9299C88.112 71.7423 87.8372 71.6082 87.529 71.5278C87.2207 71.4474 86.8119 71.4072 86.3025 71.4072C85.3777 71.4072 84.6539 71.7155 84.1312 72.332C83.6084 72.9352 83.3471 73.9069 83.3471 75.2473C83.3471 75.7968 83.3873 76.3062 83.4677 76.7753C83.5615 77.2444 83.709 77.6465 83.91 77.9816C84.1111 78.3167 84.3724 78.5848 84.6941 78.7858C85.0292 78.9735 85.4313 79.0673 85.9004 79.0673ZM98.9505 80.2334V74.5436C98.9505 74.0075 98.9237 73.545 98.8701 73.1563C98.8298 72.7542 98.7427 72.4192 98.6087 72.1511C98.4746 71.883 98.2803 71.682 98.0256 71.5479C97.7844 71.4139 97.4627 71.3469 97.0606 71.3469C96.444 71.3469 95.928 71.5345 95.5125 71.9098C95.1104 72.2851 94.8289 72.7542 94.6681 73.3172V80.2334H93.0596V70.1808H94.1855L94.4871 71.4072H94.5675C94.9294 70.9783 95.3449 70.6298 95.8141 70.3617C96.2966 70.0802 96.9198 69.9395 97.6838 69.9395C98.3272 69.9395 98.8499 70.0668 99.2521 70.3215C99.6676 70.5628 99.9892 70.9917 100.217 71.6082C100.525 71.0855 100.948 70.6767 101.484 70.3818C102.033 70.0869 102.65 69.9395 103.333 69.9395C103.896 69.9395 104.372 70.0065 104.761 70.1406C105.15 70.2612 105.471 70.4823 105.726 70.804C105.981 71.1257 106.162 71.5613 106.269 72.1109C106.389 72.6604 106.45 73.3574 106.45 74.2018V80.2334H104.841V74.1817C104.841 73.6992 104.815 73.2837 104.761 72.9352C104.721 72.5733 104.627 72.2784 104.479 72.0506C104.345 71.8093 104.151 71.635 103.896 71.5278C103.655 71.4072 103.333 71.3469 102.931 71.3469C102.261 71.3469 101.738 71.5345 101.363 71.9098C100.988 72.2851 100.72 72.8213 100.559 73.5182V80.2334H98.9505ZM109.717 70.1808H111.326V80.2334H109.717V70.1808ZM109.376 67.1248C109.376 66.8165 109.476 66.5551 109.677 66.3407C109.892 66.1128 110.16 65.9989 110.481 65.9989C110.803 65.9989 111.078 66.1128 111.306 66.3407C111.533 66.5551 111.647 66.8165 111.647 67.1248C111.647 67.433 111.533 67.6877 111.306 67.8888C111.078 68.0898 110.803 68.1903 110.481 68.1903C110.16 68.1903 109.892 68.0898 109.677 67.8888C109.476 67.6877 109.376 67.433 109.376 67.1248ZM121.209 80.2334V74.5034C121.209 73.4579 121.055 72.6738 120.747 72.1511C120.452 71.6149 119.902 71.3469 119.098 71.3469C118.388 71.3469 117.798 71.5412 117.329 71.9299C116.873 72.3052 116.551 72.781 116.364 73.3574V80.2334H114.755V70.1808H115.881L116.183 71.4072H116.263C116.585 70.9783 117.014 70.6298 117.55 70.3617C118.099 70.0802 118.749 69.9395 119.5 69.9395C120.05 69.9395 120.532 70.0065 120.948 70.1406C121.363 70.2612 121.705 70.4823 121.973 70.804C122.255 71.1257 122.462 71.5613 122.596 72.1109C122.744 72.647 122.817 73.3306 122.817 74.1616V80.2334H121.209Z" fill="black"/>
</svg>
