<svg width="133" height="60" viewBox="0 0 133 60" fill="none" xmlns="http://www.w3.org/2000/svg">
<path d="M67.332 15.064C66.252 18.712 65.124 22.132 63.948 25.324C62.772 28.516 61.488 31.612 60.096 34.612C59.592 35.692 59.088 36.604 58.584 37.348C58.08 38.116 57.528 38.74 56.928 39.22C56.328 39.724 55.644 40.084 54.876 40.3C54.132 40.54 53.256 40.66 52.248 40.66C51.408 40.66 50.628 40.576 49.908 40.408C49.212 40.264 48.636 40.096 48.18 39.904L49.116 35.62C49.668 35.812 50.16 35.944 50.592 36.016C51.024 36.088 51.48 36.124 51.96 36.124C52.92 36.124 53.652 35.86 54.156 35.332C54.684 34.828 55.128 34.12 55.488 33.208C54.264 30.808 53.04 28.12 51.816 25.144C50.592 22.144 49.44 18.784 48.36 15.064H54.048C54.288 16 54.564 17.02 54.876 18.124C55.212 19.204 55.56 20.308 55.92 21.436C56.28 22.54 56.64 23.62 57 24.676C57.384 25.732 57.744 26.692 58.08 27.556C58.392 26.692 58.716 25.732 59.052 24.676C59.388 23.62 59.712 22.54 60.024 21.436C60.36 20.308 60.672 19.204 60.96 18.124C61.272 17.02 61.548 16 61.788 15.064H67.332ZM85.6273 24.496C85.6273 25.984 85.4113 27.352 84.9793 28.6C84.5473 29.824 83.9233 30.88 83.1073 31.768C82.2913 32.632 81.3073 33.304 80.1553 33.784C79.0273 34.264 77.7553 34.504 76.3393 34.504C74.9473 34.504 73.6753 34.264 72.5233 33.784C71.3953 33.304 70.4233 32.632 69.6073 31.768C68.7913 30.88 68.1553 29.824 67.6993 28.6C67.2433 27.352 67.0153 25.984 67.0153 24.496C67.0153 23.008 67.2433 21.652 67.6993 20.428C68.1793 19.204 68.8273 18.16 69.6433 17.296C70.4833 16.432 71.4673 15.76 72.5953 15.28C73.7473 14.8 74.9953 14.56 76.3393 14.56C77.7073 14.56 78.9553 14.8 80.0833 15.28C81.2353 15.76 82.2193 16.432 83.0353 17.296C83.8513 18.16 84.4873 19.204 84.9433 20.428C85.3993 21.652 85.6273 23.008 85.6273 24.496ZM80.1553 24.496C80.1553 22.84 79.8193 21.544 79.1473 20.608C78.4993 19.648 77.5633 19.168 76.3393 19.168C75.1153 19.168 74.1673 19.648 73.4953 20.608C72.8233 21.544 72.4873 22.84 72.4873 24.496C72.4873 26.152 72.8233 27.472 73.4953 28.456C74.1673 29.416 75.1153 29.896 76.3393 29.896C77.5633 29.896 78.4993 29.416 79.1473 28.456C79.8193 27.472 80.1553 26.152 80.1553 24.496ZM92.5545 24.388C92.5545 26.044 92.9265 27.376 93.6705 28.384C94.4145 29.392 95.5185 29.896 96.9825 29.896C97.4625 29.896 97.9065 29.884 98.3145 29.86C98.7225 29.812 99.0585 29.764 99.3225 29.716V19.96C98.9865 19.744 98.5425 19.564 97.9905 19.42C97.4625 19.276 96.9225 19.204 96.3705 19.204C93.8265 19.204 92.5545 20.932 92.5545 24.388ZM104.687 33.388C104.207 33.532 103.655 33.676 103.031 33.82C102.407 33.94 101.747 34.048 101.051 34.144C100.379 34.24 99.6825 34.312 98.9625 34.36C98.2665 34.432 97.5945 34.468 96.9465 34.468C95.3865 34.468 93.9945 34.24 92.7705 33.784C91.5465 33.328 90.5145 32.68 89.6745 31.84C88.8345 30.976 88.1865 29.944 87.7305 28.744C87.2985 27.52 87.0825 26.152 87.0825 24.64C87.0825 23.104 87.2745 21.724 87.6585 20.5C88.0425 19.252 88.5945 18.196 89.3145 17.332C90.0345 16.468 90.9105 15.808 91.9425 15.352C92.9985 14.896 94.1985 14.668 95.5425 14.668C96.2865 14.668 96.9465 14.74 97.5225 14.884C98.1225 15.028 98.7225 15.232 99.3225 15.496V6.928L104.687 6.064V33.388ZM115.145 30.256C115.673 30.256 116.177 30.244 116.657 30.22C117.137 30.196 117.521 30.16 117.809 30.112V26.044C117.593 25.996 117.269 25.948 116.837 25.9C116.405 25.852 116.009 25.828 115.649 25.828C115.145 25.828 114.665 25.864 114.209 25.936C113.777 25.984 113.393 26.092 113.057 26.26C112.721 26.428 112.457 26.656 112.265 26.944C112.073 27.232 111.977 27.592 111.977 28.024C111.977 28.864 112.253 29.452 112.805 29.788C113.381 30.1 114.161 30.256 115.145 30.256ZM114.713 14.56C116.297 14.56 117.617 14.74 118.673 15.1C119.729 15.46 120.569 15.976 121.193 16.648C121.841 17.32 122.297 18.136 122.561 19.096C122.825 20.056 122.957 21.124 122.957 22.3V33.46C122.189 33.628 121.121 33.82 119.753 34.036C118.385 34.276 116.729 34.396 114.785 34.396C113.561 34.396 112.445 34.288 111.437 34.072C110.453 33.856 109.601 33.508 108.881 33.028C108.161 32.524 107.609 31.876 107.225 31.084C106.841 30.292 106.649 29.32 106.649 28.168C106.649 27.064 106.865 26.128 107.297 25.36C107.753 24.592 108.353 23.98 109.097 23.524C109.841 23.068 110.693 22.744 111.653 22.552C112.613 22.336 113.609 22.228 114.641 22.228C115.337 22.228 115.949 22.264 116.477 22.336C117.029 22.384 117.473 22.456 117.809 22.552V22.048C117.809 21.136 117.533 20.404 116.981 19.852C116.429 19.3 115.469 19.024 114.101 19.024C113.189 19.024 112.289 19.096 111.401 19.24C110.513 19.36 109.745 19.54 109.097 19.78L108.413 15.46C108.725 15.364 109.109 15.268 109.565 15.172C110.045 15.052 110.561 14.956 111.113 14.884C111.665 14.788 112.241 14.716 112.841 14.668C113.465 14.596 114.089 14.56 114.713 14.56ZM131.264 31.156C131.264 32.236 130.916 33.064 130.22 33.64C129.548 34.192 128.78 34.468 127.916 34.468C127.052 34.468 126.272 34.192 125.576 33.64C124.904 33.064 124.568 32.236 124.568 31.156C124.568 30.076 124.904 29.26 125.576 28.708C126.272 28.132 127.052 27.844 127.916 27.844C128.78 27.844 129.548 28.132 130.22 28.708C130.916 29.26 131.264 30.076 131.264 31.156Z" fill="#323232"/>
<rect x="27.4357" y="34.8945" width="10.6759" height="32.7367" rx="5.33796" transform="rotate(145.239 27.4357 34.8945)" fill="#6548C3"/>
<rect width="10.6759" height="32.7367" rx="5.33796" transform="matrix(-0.821537 -0.570155 -0.570155 0.821537 39.9957 14.0869)" fill="#FECBC5"/>
<path fill-rule="evenodd" clip-rule="evenodd" d="M24.6204 36.2454C25.6333 34.5085 25.6172 32.27 24.3953 30.5092L20.0008 24.1772L15.6064 30.5091C14.3841 32.2703 14.3684 34.5096 15.3821 36.2467L15.6246 36.5962C16.6542 38.0797 18.3011 38.8799 19.9793 38.891C21.6724 38.8934 23.3387 38.0923 24.3771 36.596L24.6204 36.2454Z" fill="#441ACD"/>
<path d="M53.852 52.284H50.24L49.26 55H48.112L51.822 45.046H52.354L56.078 55H54.86L53.852 52.284ZM50.618 51.276H53.502L52.41 48.294L52.06 46.81H52.046L51.696 48.322L50.618 51.276ZM62.6435 52.592C62.6435 53.068 62.6481 53.502 62.6575 53.894C62.6668 54.2767 62.7088 54.6547 62.7835 55.028H62.0275L61.7475 54.034H61.6915C61.5048 54.3607 61.2341 54.6313 60.8795 54.846C60.5248 55.0607 60.1095 55.168 59.6335 55.168C58.7001 55.168 58.0048 54.874 57.5475 54.286C57.0995 53.698 56.8755 52.7787 56.8755 51.528C56.8755 50.3333 57.1555 49.428 57.7155 48.812C58.2848 48.1867 59.0641 47.874 60.0535 47.874C60.3988 47.874 60.6695 47.8927 60.8655 47.93C61.0708 47.9673 61.2901 48.028 61.5235 48.112V45.2H62.6435V52.592ZM59.8155 54.188C60.2915 54.188 60.6695 54.0667 60.9495 53.824C61.2295 53.572 61.4208 53.194 61.5235 52.69V49.218C61.3555 49.0873 61.1641 48.994 60.9495 48.938C60.7348 48.882 60.4501 48.854 60.0955 48.854C59.4515 48.854 58.9475 49.0687 58.5835 49.498C58.2195 49.918 58.0375 50.5947 58.0375 51.528C58.0375 51.9107 58.0655 52.2653 58.1215 52.592C58.1868 52.9187 58.2895 53.1987 58.4295 53.432C58.5695 53.6653 58.7515 53.852 58.9755 53.992C59.2088 54.1227 59.4888 54.188 59.8155 54.188ZM68.9027 55V51.038C68.9027 50.6647 68.884 50.3427 68.8467 50.072C68.8187 49.792 68.758 49.5587 68.6647 49.372C68.5713 49.1853 68.436 49.0453 68.2587 48.952C68.0907 48.8587 67.8667 48.812 67.5867 48.812C67.1573 48.812 66.798 48.9427 66.5087 49.204C66.2287 49.4653 66.0327 49.792 65.9207 50.184V55H64.8007V48H65.5847L65.7947 48.854H65.8507C66.1027 48.5553 66.392 48.3127 66.7187 48.126C67.0547 47.93 67.4887 47.832 68.0207 47.832C68.4687 47.832 68.8327 47.9207 69.1127 48.098C69.402 48.266 69.626 48.5647 69.7847 48.994C69.9993 48.63 70.2933 48.3453 70.6667 48.14C71.0493 47.9347 71.4787 47.832 71.9547 47.832C72.3467 47.832 72.678 47.8787 72.9487 47.972C73.2193 48.056 73.4433 48.21 73.6207 48.434C73.798 48.658 73.924 48.9613 73.9987 49.344C74.0827 49.7267 74.1247 50.212 74.1247 50.8V55H73.0047V50.786C73.0047 50.45 72.986 50.1607 72.9487 49.918C72.9207 49.666 72.8553 49.4607 72.7527 49.302C72.6593 49.134 72.524 49.0127 72.3467 48.938C72.1787 48.854 71.9547 48.812 71.6747 48.812C71.208 48.812 70.844 48.9427 70.5827 49.204C70.3213 49.4653 70.1347 49.8387 70.0227 50.324V55H68.9027ZM76.4 48H77.52V55H76.4V48ZM76.162 45.872C76.162 45.6573 76.232 45.4753 76.372 45.326C76.5213 45.1673 76.708 45.088 76.932 45.088C77.156 45.088 77.3473 45.1673 77.506 45.326C77.6647 45.4753 77.744 45.6573 77.744 45.872C77.744 46.0867 77.6647 46.264 77.506 46.404C77.3473 46.544 77.156 46.614 76.932 46.614C76.708 46.614 76.5213 46.544 76.372 46.404C76.232 46.264 76.162 46.0867 76.162 45.872ZM84.4021 55V51.01C84.4021 50.282 84.2947 49.736 84.0801 49.372C83.8747 48.9987 83.4921 48.812 82.9321 48.812C82.4374 48.812 82.0267 48.9473 81.7001 49.218C81.3827 49.4793 81.1587 49.8107 81.0281 50.212V55H79.9081V48H80.6921L80.9021 48.854H80.9581C81.1821 48.5553 81.4807 48.3127 81.8541 48.126C82.2367 47.93 82.6894 47.832 83.2121 47.832C83.5947 47.832 83.9307 47.8787 84.2201 47.972C84.5094 48.056 84.7474 48.21 84.9341 48.434C85.1301 48.658 85.2747 48.9613 85.3681 49.344C85.4707 49.7173 85.5221 50.1933 85.5221 50.772V55H84.4021Z" fill="black"/>
</svg>
