<svg width="379" height="373" viewBox="0 0 379 373" fill="none" xmlns="http://www.w3.org/2000/svg">
<rect x="179" y="273" width="100" height="100" fill="#FF9F94"/>
<rect x="279" y="223" width="100" height="100" fill="#FECBC5"/>
<rect x="179" y="173" width="100" height="100" fill="white"/>
<circle r="59" transform="matrix(-1 0 0 1 80 159)" fill="white"/>
<circle r="14" transform="matrix(-1 0 0 1 159 287)" fill="#FECBC5"/>
<circle r="14" transform="matrix(-1 0 0 1 159 329)" fill="#FF9F94"/>
<circle r="17.4" transform="matrix(4.37114e-08 -1 -1 -4.37114e-08 161.6 72.3998)" fill="#FECBC5"/>
<circle r="17.4" transform="matrix(4.37114e-08 -1 -1 -4.37114e-08 109.4 72.3998)" fill="#FF9F94"/>
<circle r="16.9" transform="matrix(-1 0 0 1 328.9 130.9)" fill="white"/>
<circle r="6" transform="matrix(4.37114e-08 1 1 -4.37114e-08 145 359)" fill="#FECBC5"/>
<circle r="6" transform="matrix(4.37114e-08 1 1 -4.37114e-08 163 359)" fill="#FF9F94"/>
<circle r="6" transform="matrix(1 -8.74228e-08 -8.74228e-08 -1 21 232)" fill="#FECBC5"/>
<circle r="6" transform="matrix(1 -8.74228e-08 -8.74228e-08 -1 21 214)" fill="#FF9F94"/>
<circle r="6" transform="matrix(2.18557e-07 1 1 -2.18557e-07 185 44)" fill="#FECBC5"/>
<circle r="6" transform="matrix(2.18557e-07 1 1 -2.18557e-07 203 44)" fill="#FF9F94"/>
<circle r="6" transform="matrix(2.18557e-07 1 1 -2.18557e-07 59 47)" fill="#FECBC5"/>
<circle r="6" transform="matrix(2.18557e-07 1 1 -2.18557e-07 77 47)" fill="#FF9F94"/>
<path fill-rule="evenodd" clip-rule="evenodd" d="M272.11 100H263.177L163.296 273H172.228L272.11 100ZM177.912 273H186.845L279 113.383V100H277.794L177.912 273ZM201.462 273H192.529L279 123.228V138.7L201.462 273ZM207.146 273H216.079L279 164.017V148.545L207.146 273ZM230.695 273H221.763L279 173.862V189.334L230.695 273ZM236.38 273H246.522L279 216.747V199.179L236.38 273ZM262.349 273H252.206L279 226.592V244.159L262.349 273ZM268.033 273H279V254.005L268.033 273ZM248.56 100H257.493L157.611 273H148.679L248.56 100ZM242.876 100H233.943L134.062 273H142.994L242.876 100ZM219.327 100H228.259L128.378 273H119.445L219.327 100ZM213.642 100H204.71L106 270.97V273H113.761L213.642 100ZM190.093 100H199.026L106 261.125V245.653L190.093 100ZM184.409 100H175.476L106 220.336V235.808L184.409 100ZM160.859 100H169.792L106 210.491V195.019L160.859 100ZM111.428 100H106V109.402L111.428 100ZM106 119.248V136.739L127.211 100H117.113L106 119.248ZM106 164.076V146.585L132.896 100H142.994L106 164.076ZM106 173.922V185.174L155.175 100H148.679L106 173.922Z" fill="#FECBC5"/>
<rect x="244" width="100" height="100" fill="#FECBC5"/>
<rect y="252" width="106" height="100" fill="#FECBC5"/>
<path d="M83.75 298.812H52.25C51.9019 298.812 51.5681 298.674 51.3219 298.428C51.0758 298.182 50.9375 297.848 50.9375 297.5C50.9375 297.152 51.0758 296.818 51.3219 296.572C51.5681 296.326 51.9019 296.188 52.25 296.188H83.75C84.0981 296.188 84.4319 296.326 84.6781 296.572C84.9242 296.818 85.0625 297.152 85.0625 297.5C85.0625 297.848 84.9242 298.182 84.6781 298.428C84.4319 298.674 84.0981 298.812 83.75 298.812Z" fill="#6548C3"/>
<path d="M81.125 302.75H54.875C54.5269 302.75 54.1931 302.612 53.9469 302.366C53.7008 302.119 53.5625 301.786 53.5625 301.438C53.5625 301.089 53.7008 300.756 53.9469 300.509C54.1931 300.263 54.5269 300.125 54.875 300.125H81.125C81.4731 300.125 81.8069 300.263 82.0531 300.509C82.2992 300.756 82.4375 301.089 82.4375 301.438C82.4375 301.786 82.2992 302.119 82.0531 302.366C81.8069 302.612 81.4731 302.75 81.125 302.75Z" fill="#6548C3"/>
<path d="M49.625 288.312H48.3125V292.25C48.3125 292.946 48.5891 293.614 49.0813 294.106C49.5736 294.598 50.2413 294.875 50.9375 294.875H54.875V293.562C54.8735 292.171 54.3199 290.836 53.3356 289.852C52.3514 288.868 51.0169 288.314 49.625 288.312Z" fill="#6548C3"/>
<path d="M86.375 285.688H87.6875V280.438H86.375C84.2872 280.435 82.2855 279.605 80.8092 278.128C79.3328 276.652 78.5024 274.65 78.5 272.562V271.25H57.5V272.562C57.4976 274.65 56.6672 276.652 55.1908 278.128C53.7145 279.605 51.7128 280.435 49.625 280.438H48.3125V285.688C48.7227 285.688 49.1607 285.688 49.625 285.688C51.7128 285.69 53.7145 286.52 55.1908 287.997C56.6672 289.473 57.4976 291.475 57.5 293.562V294.875H78.5V293.562C78.5024 291.475 79.3328 289.473 80.8092 287.997C82.2855 286.52 84.2872 285.69 86.375 285.688ZM68 290.938C66.4425 290.938 64.9199 290.476 63.6249 289.61C62.3298 288.745 61.3205 287.515 60.7244 286.076C60.1284 284.637 59.9725 283.054 60.2763 281.526C60.5802 279.999 61.3302 278.595 62.4315 277.494C63.5329 276.393 64.9361 275.643 66.4637 275.339C67.9913 275.035 69.5747 275.191 71.0136 275.787C72.4526 276.383 73.6825 277.392 74.5478 278.687C75.4131 279.982 75.875 281.505 75.875 283.062C75.8726 285.15 75.0422 287.152 73.5658 288.628C72.0895 290.105 70.0878 290.935 68 290.938Z" fill="#6548C3"/>
<path d="M68 288.312C70.8995 288.312 73.25 285.962 73.25 283.062C73.25 280.163 70.8995 277.812 68 277.812C65.1005 277.812 62.75 280.163 62.75 283.062C62.75 285.962 65.1005 288.312 68 288.312Z" fill="#6548C3"/>
<path d="M81.125 293.562V294.875H85.0625C85.7587 294.875 86.4264 294.598 86.9187 294.106C87.4109 293.614 87.6875 292.946 87.6875 292.25V288.312H86.375C84.9831 288.314 83.6486 288.868 82.6644 289.852C81.6801 290.836 81.1265 292.171 81.125 293.562Z" fill="#6548C3"/>
<path d="M86.375 277.812H87.6875V273.875C87.6875 273.179 87.4109 272.511 86.9187 272.019C86.4264 271.527 85.7587 271.25 85.0625 271.25H81.125V272.562C81.1265 273.954 81.6801 275.289 82.6644 276.273C83.6486 277.257 84.9831 277.811 86.375 277.812Z" fill="#6548C3"/>
<path d="M54.875 272.562V271.25H50.9375C50.2413 271.25 49.5736 271.527 49.0813 272.019C48.5891 272.511 48.3125 273.179 48.3125 273.875V277.812H49.625C51.0169 277.811 52.3514 277.257 53.3356 276.273C54.3199 275.289 54.8735 273.954 54.875 272.562Z" fill="#6548C3"/>
<path d="M193.422 352.285C193.169 352.285 192.921 352.212 192.708 352.074C192.496 351.937 192.327 351.74 192.224 351.509C190.971 348.711 190.438 345.643 190.674 342.586C190.91 339.529 191.907 336.579 193.575 334.006C195.242 331.433 197.528 329.318 200.222 327.854C202.916 326.39 205.934 325.624 209 325.625C209.348 325.625 209.682 325.763 209.928 326.009C210.174 326.256 210.312 326.589 210.312 326.938V344C210.313 344.253 210.239 344.501 210.101 344.714C209.964 344.927 209.767 345.095 209.536 345.198L193.958 352.167C193.79 352.244 193.607 352.284 193.422 352.285Z" fill="#6548C3"/>
<path d="M213.724 328.593C213.629 328.574 213.531 328.576 213.437 328.599C213.342 328.622 213.254 328.666 213.179 328.727C213.104 328.789 213.043 328.866 213.001 328.954C212.96 329.041 212.938 329.137 212.938 329.234V344C212.937 344.76 212.717 345.504 212.303 346.141C211.89 346.779 211.301 347.284 210.608 347.595L196.46 353.926C196.372 353.965 196.294 354.023 196.231 354.095C196.168 354.168 196.122 354.254 196.096 354.346C196.07 354.438 196.064 354.535 196.08 354.63C196.095 354.725 196.131 354.815 196.185 354.895C197.268 356.487 198.612 357.885 200.16 359.03C203.094 361.212 206.656 362.386 210.313 362.375C219.721 362.375 227.375 354.721 227.375 345.313C227.375 337.072 221.503 330.178 213.724 328.593Z" fill="#6548C3"/>
<path d="M321.625 276.844C321.625 278.062 322.109 279.231 322.97 280.092C323.832 280.954 325 281.438 326.219 281.438H353.781C355 281.438 356.168 280.954 357.03 280.092C357.891 279.231 358.375 278.062 358.375 276.844V264.211H321.625V276.844ZM327.039 270.609C327.039 269.957 327.298 269.331 327.76 268.869C328.221 268.408 328.847 268.148 329.5 268.148H333.438C334.09 268.148 334.716 268.408 335.178 268.869C335.639 269.331 335.898 269.957 335.898 270.609V272.25C335.898 272.903 335.639 273.529 335.178 273.99C334.716 274.452 334.09 274.711 333.438 274.711H329.5C328.847 274.711 328.221 274.452 327.76 273.99C327.298 273.529 327.039 272.903 327.039 272.25V270.609Z" fill="#6548C3"/>
<path d="M353.781 252.562H326.219C325 252.562 323.832 253.046 322.97 253.908C322.109 254.769 321.625 255.938 321.625 257.156V259.289H358.375V257.156C358.375 255.938 357.891 254.769 357.03 253.908C356.168 253.046 355 252.562 353.781 252.562Z" fill="#6548C3"/>
<path d="M304.5 70.25H284.25C283.852 70.25 283.471 70.092 283.189 69.8107C282.908 69.5294 282.75 69.1478 282.75 68.75V48.5C282.75 48.3011 282.829 48.1103 282.97 47.9697C283.11 47.829 283.301 47.75 283.5 47.75C283.699 47.75 283.89 47.829 284.03 47.9697C284.171 48.1103 284.25 48.3011 284.25 48.5V68.75H304.5C304.699 68.75 304.89 68.829 305.03 68.9697C305.171 69.1103 305.25 69.3011 305.25 69.5C305.25 69.6989 305.171 69.8897 305.03 70.0303C304.89 70.171 304.699 70.25 304.5 70.25Z" fill="#6548C3"/>
<path d="M289.312 67.25H287.438C286.99 67.25 286.561 67.0722 286.244 66.7557C285.928 66.4393 285.75 66.0101 285.75 65.5625V58.4375C285.75 57.9899 285.928 57.5607 286.244 57.2443C286.561 56.9278 286.99 56.75 287.438 56.75H289.312C289.76 56.75 290.189 56.9278 290.506 57.2443C290.822 57.5607 291 57.9899 291 58.4375V65.5625C291 66.0101 290.822 66.4393 290.506 66.7557C290.189 67.0722 289.76 67.25 289.312 67.25Z" fill="#6548C3"/>
<path d="M296.062 67.25H294.188C293.74 67.25 293.311 67.0722 292.994 66.7557C292.678 66.4393 292.5 66.0101 292.5 65.5625V56.1875C292.5 55.7399 292.678 55.3107 292.994 54.9943C293.311 54.6778 293.74 54.5 294.188 54.5H296.062C296.51 54.5 296.939 54.6778 297.256 54.9943C297.572 55.3107 297.75 55.7399 297.75 56.1875V65.5625C297.75 66.0101 297.572 66.4393 297.256 66.7557C296.939 67.0722 296.51 67.25 296.062 67.25Z" fill="#6548C3"/>
<path d="M302.796 67.25H300.921C300.473 67.25 300.044 67.0722 299.727 66.7557C299.411 66.4393 299.233 66.0101 299.233 65.5625V53.1875C299.233 52.7399 299.411 52.3107 299.727 51.9943C300.044 51.6778 300.473 51.5 300.921 51.5H302.796C303.243 51.5 303.672 51.6778 303.989 51.9943C304.305 52.3107 304.483 52.7399 304.483 53.1875V65.5625C304.483 66.0101 304.305 66.4393 303.989 66.7557C303.672 67.0722 303.243 67.25 302.796 67.25Z" fill="#6548C3"/>
<path d="M98.078 172.25C97.5056 172.25 96.9419 172.39 96.4359 172.658C95.9299 172.925 95.4968 173.312 95.1743 173.785C94.8518 174.258 94.6497 174.802 94.5855 175.371C94.5213 175.94 94.597 176.516 94.8059 177.049L87.4081 184.447C86.5835 184.122 85.6664 184.122 84.8417 184.447L79.5533 179.158C79.7627 178.625 79.8388 178.049 79.7748 177.48C79.7108 176.911 79.5088 176.366 79.1863 175.893C78.8637 175.42 78.4305 175.032 77.9242 174.765C77.4179 174.497 76.8539 174.357 76.2812 174.357C75.7085 174.357 75.1445 174.497 74.6382 174.765C74.1319 175.032 73.6986 175.42 73.3761 175.893C73.0536 176.366 72.8515 176.911 72.7876 177.48C72.7236 178.049 72.7996 178.625 73.009 179.158L64.205 187.962C63.4531 187.667 62.6226 187.64 61.8531 187.886C61.0836 188.131 60.4221 188.634 59.9797 189.31C59.5374 189.985 59.3412 190.793 59.4241 191.596C59.5071 192.4 59.8641 193.15 60.4352 193.721C61.0063 194.292 61.7567 194.649 62.5601 194.732C63.3635 194.815 64.1709 194.619 64.8467 194.176C65.5224 193.734 66.0252 193.073 66.2706 192.303C66.516 191.534 66.4889 190.703 66.194 189.951L74.998 181.147C75.8226 181.472 76.7397 181.472 77.5644 181.147L82.8528 186.436C82.6433 186.969 82.5673 187.545 82.6313 188.114C82.6953 188.683 82.8973 189.228 83.2198 189.701C83.5424 190.174 83.9756 190.561 84.4819 190.829C84.9882 191.097 85.5522 191.237 86.1249 191.237C86.6976 191.237 87.2616 191.097 87.7679 190.829C88.2742 190.561 88.7075 190.174 89.03 189.701C89.3525 189.228 89.5546 188.683 89.6185 188.114C89.6825 187.545 89.6065 186.969 89.3971 186.436L96.7948 179.038C97.2762 179.227 97.7934 179.307 98.3095 179.274C98.8256 179.24 99.328 179.093 99.7807 178.843C100.233 178.593 100.625 178.246 100.928 177.827C101.232 177.408 101.439 176.927 101.535 176.419C101.631 175.91 101.614 175.387 101.484 174.887C101.355 174.386 101.117 173.92 100.787 173.522C100.456 173.123 100.043 172.803 99.5744 172.583C99.1062 172.363 98.5953 172.25 98.078 172.25Z" fill="#6548C3"/>
</svg>
